<svg width="224" height="99" viewBox="0 0 224 99" fill="none" xmlns="http://www.w3.org/2000/svg">
<rect width="224" height="99" fill="#0F1C23"/>
<path d="M46.476 14.8H50.436V40H46.476V14.8ZM53.4018 14.8H58.3698L62.2218 29.884H62.2938V14.8H65.8218V40H61.7538L57.0018 21.604H56.9298V40H53.4018V14.8ZM68.7651 14.8H74.8131C76.7811 14.8 78.2571 15.328 79.2411 16.384C80.2251 17.44 80.7171 18.988 80.7171 21.028V33.772C80.7171 35.812 80.2251 37.36 79.2411 38.416C78.2571 39.472 76.7811 40 74.8131 40H68.7651V14.8ZM74.7411 36.4C75.3891 36.4 75.8811 36.208 76.2171 35.824C76.5771 35.44 76.7571 34.816 76.7571 33.952V20.848C76.7571 19.984 76.5771 19.36 76.2171 18.976C75.8811 18.592 75.3891 18.4 74.7411 18.4H72.7251V36.4H74.7411ZM89.1501 40.36C87.2301 40.36 85.7661 39.82 84.7581 38.74C83.7501 37.636 83.2461 36.064 83.2461 34.024V14.8H87.2061V34.312C87.2061 35.176 87.3741 35.8 87.7101 36.184C88.0701 36.568 88.5741 36.76 89.2221 36.76C89.8701 36.76 90.3621 36.568 90.6981 36.184C91.0581 35.8 91.2381 35.176 91.2381 34.312V14.8H95.0541V34.024C95.0541 36.064 94.5501 37.636 93.5421 38.74C92.5341 39.82 91.0701 40.36 89.1501 40.36ZM103.022 40.36C101.102 40.36 99.6504 39.82 98.6664 38.74C97.6824 37.636 97.1904 36.064 97.1904 34.024V32.584H100.934V34.312C100.934 35.944 101.618 36.76 102.986 36.76C103.658 36.76 104.162 36.568 104.498 36.184C104.858 35.776 105.038 35.128 105.038 34.24C105.038 33.184 104.798 32.26 104.318 31.468C103.838 30.652 102.95 29.68 101.654 28.552C100.022 27.112 98.8824 25.816 98.2344 24.664C97.5864 23.488 97.2624 22.168 97.2624 20.704C97.2624 18.712 97.7664 17.176 98.7744 16.096C99.7824 14.992 101.246 14.44 103.166 14.44C105.062 14.44 106.49 14.992 107.45 16.096C108.434 17.176 108.926 18.736 108.926 20.776V21.82H105.182V20.524C105.182 19.66 105.014 19.036 104.678 18.652C104.342 18.244 103.85 18.04 103.202 18.04C101.882 18.04 101.222 18.844 101.222 20.452C101.222 21.364 101.462 22.216 101.942 23.008C102.446 23.8 103.346 24.76 104.642 25.888C106.298 27.328 107.438 28.636 108.062 29.812C108.686 30.988 108.998 32.368 108.998 33.952C108.998 36.016 108.482 37.6 107.45 38.704C106.442 39.808 104.966 40.36 103.022 40.36ZM114.365 18.4H110.225V14.8H122.465V18.4H118.325V40H114.365V18.4ZM124.382 14.8H130.25C132.29 14.8 133.778 15.28 134.714 16.24C135.65 17.176 136.118 18.628 136.118 20.596V22.144C136.118 24.76 135.254 26.416 133.526 27.112V27.184C134.486 27.472 135.158 28.06 135.542 28.948C135.95 29.836 136.154 31.024 136.154 32.512V36.94C136.154 37.66 136.178 38.248 136.226 38.704C136.274 39.136 136.394 39.568 136.586 40H132.554C132.41 39.592 132.314 39.208 132.266 38.848C132.218 38.488 132.194 37.84 132.194 36.904V32.296C132.194 31.144 132.002 30.34 131.618 29.884C131.258 29.428 130.622 29.2 129.71 29.2H128.342V40H124.382V14.8ZM129.782 25.6C130.574 25.6 131.162 25.396 131.546 24.988C131.954 24.58 132.158 23.896 132.158 22.936V20.992C132.158 20.08 131.99 19.42 131.654 19.012C131.342 18.604 130.838 18.4 130.142 18.4H128.342V25.6H129.782ZM138.902 14.8H142.862V40H138.902V14.8ZM148.888 14.8H154.252L158.356 40H154.396L153.676 34.996V35.068H149.176L148.456 40H144.784L148.888 14.8ZM153.208 31.648L151.444 19.192H151.372L149.644 31.648H153.208ZM160.277 14.8H164.237V36.4H170.753V40H160.277V14.8ZM52.056 83.36C50.16 83.36 48.708 82.82 47.7 81.74C46.716 80.66 46.224 79.136 46.224 77.168V63.632C46.224 61.664 46.716 60.14 47.7 59.06C48.708 57.98 50.16 57.44 52.056 57.44C53.952 57.44 55.392 57.98 56.376 59.06C57.384 60.14 57.888 61.664 57.888 63.632V66.296H54.144V63.38C54.144 61.82 53.484 61.04 52.164 61.04C50.844 61.04 50.184 61.82 50.184 63.38V77.456C50.184 78.992 50.844 79.76 52.164 79.76C53.484 79.76 54.144 78.992 54.144 77.456V73.604H57.888V77.168C57.888 79.136 57.384 80.66 56.376 81.74C55.392 82.82 53.952 83.36 52.056 83.36ZM66.0516 83.36C64.1076 83.36 62.6196 82.808 61.5876 81.704C60.5556 80.6 60.0396 79.04 60.0396 77.024V63.776C60.0396 61.76 60.5556 60.2 61.5876 59.096C62.6196 57.992 64.1076 57.44 66.0516 57.44C67.9956 57.44 69.4836 57.992 70.5156 59.096C71.5476 60.2 72.0636 61.76 72.0636 63.776V77.024C72.0636 79.04 71.5476 80.6 70.5156 81.704C69.4836 82.808 67.9956 83.36 66.0516 83.36ZM66.0516 79.76C67.4196 79.76 68.1036 78.932 68.1036 77.276V63.524C68.1036 61.868 67.4196 61.04 66.0516 61.04C64.6836 61.04 63.9996 61.868 63.9996 63.524V77.276C63.9996 78.932 64.6836 79.76 66.0516 79.76ZM74.7416 57.8H80.3936L82.9136 75.836H82.9856L85.5056 57.8H91.1576V83H87.4136V63.92H87.3416L84.4616 83H81.1496L78.2696 63.92H78.1976V83H74.7416V57.8ZM94.1127 57.8H99.9447C101.913 57.8 103.389 58.328 104.373 59.384C105.357 60.44 105.849 61.988 105.849 64.028V66.512C105.849 68.552 105.357 70.1 104.373 71.156C103.389 72.212 101.913 72.74 99.9447 72.74H98.0727V83H94.1127V57.8ZM99.9447 69.14C100.593 69.14 101.073 68.96 101.385 68.6C101.721 68.24 101.889 67.628 101.889 66.764V63.776C101.889 62.912 101.721 62.3 101.385 61.94C101.073 61.58 100.593 61.4 99.9447 61.4H98.0727V69.14H99.9447ZM109.794 57.8H115.158L119.262 83H115.302L114.582 77.996V78.068H110.082L109.362 83H105.69L109.794 57.8ZM114.114 74.648L112.35 62.192H112.278L110.55 74.648H114.114ZM121.183 57.8H126.151L130.003 72.884H130.075V57.8H133.603V83H129.535L124.783 64.604H124.711V83H121.183V57.8ZM140.182 72.272L135.394 57.8H139.606L142.306 67.052H142.378L145.078 57.8H148.93L144.142 72.272V83H140.182V72.272Z" fill="#E67A17"/>
</svg>
