<svg width="300" height="120" viewBox="0 0 300 120" fill="none" xmlns="http://www.w3.org/2000/svg">
<rect width="300" height="120" fill="#0F1C23"/>
<path d="M35.344 51L39.304 28.5H46.144L42.184 51H35.344ZM34.264 50.892L19 49.272H34.552L34.264 50.892ZM35.488 43.944L20.224 42.324H35.776L35.488 43.944ZM36.1 40.488L20.836 38.868H36.388L36.1 40.488ZM36.712 37.032L21.448 35.412H37L36.712 37.032ZM37.324 33.576L22.06 31.956H37.576L37.324 33.576ZM34.876 47.4L19.612 45.78H35.164L34.876 47.4ZM37.9 30.12L22.672 28.5H38.188L37.9 30.12ZM64.6446 51L60.9366 43.872H60.7926L59.5326 51H53.4846L56.7966 31.956H61.6926L65.4366 39.048H65.6526L66.8766 31.956H72.8886L69.5406 51H64.6446ZM52.2966 50.892L37.0326 49.272H52.5846L52.2966 50.892ZM53.5206 43.944L38.2566 42.324H53.8086L53.5206 43.944ZM54.1326 40.488L38.8686 38.868H54.4206L54.1326 40.488ZM54.7446 37.032L39.4806 35.412H55.0326L54.7446 37.032ZM55.3566 33.576L40.0926 31.956H55.6086L55.3566 33.576ZM52.9086 47.4L37.6446 45.78H53.1966L52.9086 47.4ZM92.5646 31.956C95.1806 31.956 97.0526 32.424 98.1806 33.36C99.3086 34.296 99.8726 35.796 99.8726 37.86C99.8726 38.844 99.7406 40.056 99.4766 41.496C98.8766 44.904 97.8326 47.34 96.3446 48.804C94.8806 50.268 92.5046 51 89.2166 51H81.1526L84.4646 31.956H92.5646ZM91.7006 37.212H89.6126L88.1006 45.852H90.1886C90.8846 45.852 91.4126 45.768 91.7726 45.6C92.1566 45.408 92.3966 45.036 92.4926 44.484L93.5366 38.544C93.5606 38.448 93.5726 38.256 93.5726 37.968C93.5726 37.464 92.9486 37.212 91.7006 37.212ZM79.9646 50.892L64.7006 49.272H80.2526L79.9646 50.892ZM81.1886 43.944L65.9246 42.324H81.4766L81.1886 43.944ZM81.8006 40.488L66.5366 38.868H82.0886L81.8006 40.488ZM82.4126 37.032L67.1486 35.412H82.7006L82.4126 37.032ZM83.0246 33.576L67.7606 31.956H83.2766L83.0246 33.576ZM80.5766 47.4L65.3126 45.78H80.8646L80.5766 47.4ZM109.103 43.944L93.8387 42.324H109.391L109.103 43.944ZM109.715 40.488L94.4507 38.868H110.003L109.715 40.488ZM110.327 37.032L95.0627 35.412H110.615L110.327 37.032ZM110.939 33.576L95.6747 31.956H111.191L110.939 33.576ZM108.959 45.78V46.5C108.959 46.908 108.971 47.208 108.995 47.4L93.7307 45.78H108.959ZM110.363 50.892L95.0987 49.272H109.319C109.583 49.944 109.931 50.484 110.363 50.892ZM117.743 45.96C118.391 45.96 118.835 45.888 119.075 45.744C119.339 45.576 119.519 45.192 119.615 44.592L121.883 31.956H127.931L126.059 42.684C125.483 46.044 124.547 48.348 123.251 49.596C121.979 50.82 119.795 51.432 116.699 51.432C114.227 51.432 112.499 51.072 111.515 50.352C110.531 49.608 110.039 48.324 110.039 46.5C110.039 45.492 110.171 44.22 110.435 42.684L112.343 31.956H118.391L115.943 45.96H117.743ZM119.311 49.272H134.863L134.359 50.892L119.311 49.272ZM137.599 35.412C137.455 35.796 137.299 36.336 137.131 37.032L122.083 35.412H137.599ZM136.699 40.2V40.488L121.435 38.868H136.771C136.723 39.444 136.699 39.888 136.699 40.2ZM135.511 47.364L120.499 45.78H136.015L135.511 47.364ZM140.083 31.956C139.435 32.436 138.943 32.94 138.607 33.468L124.567 31.956H140.083ZM137.023 42.324C137.239 42.948 137.587 43.488 138.067 43.944L122.839 42.324H137.023ZM151.387 37.608C149.755 37.224 148.363 37.032 147.211 37.032C146.059 37.032 145.207 37.068 144.655 37.14L144.475 38.184L146.275 38.4C150.139 38.904 152.071 40.5 152.071 43.188C152.071 43.5 151.999 44.088 151.855 44.952C151.711 45.792 151.471 46.608 151.135 47.4C150.799 48.192 150.367 48.84 149.839 49.344C149.335 49.824 148.831 50.22 148.327 50.532C147.847 50.82 147.223 51.024 146.455 51.144C145.255 51.336 143.647 51.432 141.631 51.432C139.639 51.432 137.623 51.156 135.583 50.604L137.347 45.276C139.219 45.804 140.851 46.068 142.243 46.068C143.659 46.068 144.655 46.032 145.231 45.96L145.411 44.808L143.143 44.556C141.199 44.34 139.819 43.884 139.003 43.188C138.187 42.492 137.779 41.496 137.779 40.2C137.779 39.72 137.839 39.12 137.959 38.4C138.439 35.832 139.303 34.056 140.551 33.072C141.799 32.088 143.695 31.596 146.239 31.596C148.807 31.596 151.099 31.848 153.115 32.352L151.387 37.608ZM176.291 37.356H172.403L170.027 51H163.691L166.067 37.356H162.071L163.043 31.956H177.263L176.291 37.356ZM162.611 50.892L147.347 49.272H162.899L162.611 50.892ZM163.835 43.944L148.571 42.324H164.123L163.835 43.944ZM164.447 40.488L149.183 38.868H164.735L164.447 40.488ZM160.991 37.032L145.727 35.412H161.279L160.991 37.032ZM161.603 33.576L146.339 31.956H161.855L161.603 33.576ZM163.223 47.4L147.959 45.78H163.511L163.223 47.4ZM195.948 31.956C199.452 31.956 201.204 33.54 201.204 36.708C201.204 38.148 200.916 39.648 200.34 41.208C199.764 42.744 198.792 43.896 197.424 44.664L199.476 51H192.744L191.376 45.456H190.512L189.54 51H183.492L186.804 31.956H195.948ZM194.616 38.184C194.616 38.16 194.628 38.04 194.652 37.824C194.652 37.416 194.016 37.212 192.744 37.212H191.952L191.376 40.524H192.528C193.632 40.524 194.256 40.164 194.4 39.444L194.616 38.184ZM182.304 50.892L167.04 49.272H182.592L182.304 50.892ZM183.528 43.944L168.264 42.324H183.816L183.528 43.944ZM184.14 40.488L168.876 38.868H184.428L184.14 40.488ZM184.752 37.032L169.488 35.412H185.04L184.752 37.032ZM185.364 33.576L170.1 31.956H185.616L185.364 33.576ZM182.916 47.4L167.652 45.78H183.204L182.916 47.4ZM209.438 51L212.75 31.956H219.086L215.738 51H209.438ZM208.25 50.892L192.986 49.272H208.538L208.25 50.892ZM209.474 43.944L194.21 42.324H209.762L209.474 43.944ZM210.086 40.488L194.822 38.868H210.374L210.086 40.488ZM210.698 37.032L195.434 35.412H210.986L210.698 37.032ZM211.31 33.576L196.046 31.956H211.562L211.31 33.576ZM208.862 47.4L193.598 45.78H209.15L208.862 47.4ZM238.643 51L238.499 48.084H233.963L232.847 51H226.619L234.611 31.956H243.539L244.943 51H238.643ZM238.499 42.936V37.464H237.995L235.871 42.936H238.499ZM225.467 50.856L210.707 49.272H226.151L225.467 50.856ZM226.943 47.364L212.183 45.78H227.627L226.943 47.364ZM228.419 43.908L213.659 42.324H229.067L228.419 43.908ZM229.859 40.452L215.135 38.868H230.543L229.859 40.452ZM231.335 36.996L216.611 35.412H231.983L231.335 36.996ZM232.775 33.504L218.087 31.956H233.423L232.775 33.504ZM266.032 51H254.332L257.644 31.956H263.98L261.568 45.708H266.968L266.032 51ZM253.144 50.892L237.88 49.272H253.432L253.144 50.892ZM254.368 43.944L239.104 42.324H254.656L254.368 43.944ZM254.98 40.488L239.716 38.868H255.268L254.98 40.488ZM255.592 37.032L240.328 35.412H255.88L255.592 37.032ZM256.204 33.576L240.94 31.956H256.456L256.204 33.576ZM253.756 47.4L238.492 45.78H254.044L253.756 47.4ZM34.912 77.588C34.864 77.78 34.816 78.044 34.768 78.38L20.62 76.868H35.02L34.912 77.588ZM34.516 80.324C34.444 80.876 34.408 81.38 34.408 81.836L20.224 80.324H34.516ZM35.884 73.412L35.452 74.888L21.484 73.412H35.884ZM34.444 83.78C34.54 84.452 34.624 84.956 34.696 85.292L20.692 83.78H34.444ZM37.36 69.956C37.024 70.58 36.784 71.06 36.64 71.396L23.176 69.956H37.36ZM35.524 87.272C35.836 87.824 36.196 88.268 36.604 88.604L24.148 87.272H35.524ZM40.78 66.5C40.084 66.932 39.544 67.328 39.16 67.688L28.144 66.5H40.78ZM43.948 89.54C40.924 89.54 38.752 88.952 37.432 87.776C36.136 86.6 35.488 84.788 35.488 82.34C35.488 81.308 35.656 79.784 35.992 77.768C36.712 73.64 37.948 70.64 39.7 68.768C41.476 66.896 44.272 65.96 48.088 65.96C48.976 65.96 49.984 66.056 51.112 66.248C52.264 66.416 53.104 66.632 53.632 66.896L51.616 72.404C50.2 72.068 48.868 71.9 47.62 71.9C46.396 71.9 45.52 72.02 44.992 72.26C44.464 72.5 44.14 72.98 44.02 73.7L42.364 83.132C43.228 83.324 44.116 83.42 45.028 83.42C46.972 83.42 48.748 83.132 50.356 82.556L49.78 88.604C48.244 89.228 46.3 89.54 43.948 89.54ZM70.8982 69.596C73.4902 69.596 75.3382 70.1 76.4422 71.108C77.5462 72.092 78.0982 73.64 78.0982 75.752C78.0982 76.784 77.9662 78.032 77.7022 79.496C77.1022 82.952 76.0462 85.472 74.5342 87.056C73.0222 88.64 70.6462 89.432 67.4062 89.432C64.8622 89.432 63.0502 88.94 61.9702 87.956C60.8902 86.948 60.3502 85.4 60.3502 83.312C60.3502 82.232 60.4822 80.96 60.7462 79.496C61.3462 76.04 62.3902 73.532 63.8782 71.972C65.3662 70.388 67.7062 69.596 70.8982 69.596ZM68.4502 83.96C69.1462 83.96 69.6622 83.876 69.9982 83.708C70.3582 83.54 70.5982 83.168 70.7182 82.592L72.0862 75.068H69.8902C69.2182 75.068 68.6902 75.152 68.3062 75.32C67.9462 75.488 67.7302 75.848 67.6582 76.4L66.3262 83.96H68.4502ZM59.4862 80.324C59.3902 81.068 59.3302 81.572 59.3062 81.836L45.1222 80.324H59.4862ZM60.1702 76.868L59.8462 78.38L45.7702 76.868H60.1702ZM59.2702 83.78C59.2702 84.164 59.3182 84.668 59.4142 85.292L45.2662 83.78H59.2702ZM61.4302 73.412C61.1422 74.036 60.9382 74.516 60.8182 74.852L47.2102 73.412H61.4302ZM60.0262 87.272C60.3142 87.848 60.6262 88.292 60.9622 88.604L48.3982 87.272H60.0262ZM64.5622 69.956C63.9862 70.292 63.4942 70.688 63.0862 71.144L52.0342 69.956H64.5622ZM100.591 89H95.8386L95.2986 81.26H95.1186L93.3906 89H87.2346L91.5906 69.956H99.4026L99.9426 78.884H100.087L103.723 69.956H111.535L109.231 89H103.039L104.011 81.26H103.831L100.591 89ZM86.0466 88.892L70.7826 87.272H86.4066L86.0466 88.892ZM86.8386 85.4L71.6106 83.78H87.2346L86.8386 85.4ZM87.6666 81.944L72.4386 80.324H88.0266L87.6666 81.944ZM88.3866 78.488L73.2666 76.868H88.7826L88.3866 78.488ZM89.2146 75.032L74.0946 73.412H89.5746L89.2146 75.032ZM90.0066 71.576L74.9226 69.956H90.4026L90.0066 71.576ZM130.016 84.536H126.524L125.732 89H119.684L122.996 69.956H132.14C135.62 69.956 137.36 71.6 137.36 74.888C137.36 76.376 137.144 77.744 136.712 78.992C136.28 80.24 135.812 81.224 135.308 81.944C134.804 82.664 134.084 83.276 133.148 83.78C132.236 84.284 131.192 84.536 130.016 84.536ZM130.808 76.184C130.808 76.16 130.82 76.088 130.844 75.968C130.844 75.464 130.328 75.212 129.296 75.212H128.144L127.388 79.676H128.504C129.056 79.676 129.488 79.616 129.8 79.496C130.112 79.352 130.304 79.064 130.376 78.632L130.808 76.184ZM118.496 88.892L103.232 87.272H118.784L118.496 88.892ZM119.72 81.944L104.456 80.324H120.008L119.72 81.944ZM120.332 78.488L105.068 76.868H120.62L120.332 78.488ZM120.944 75.032L105.68 73.412H121.232L120.944 75.032ZM121.556 71.576L106.292 69.956H121.808L121.556 71.576ZM119.108 85.4L103.844 83.78H119.396L119.108 85.4ZM155.217 89L155.073 86.084H150.537L149.421 89H143.193L151.185 69.956H160.113L161.517 89H155.217ZM155.073 80.936V75.464H154.569L152.445 80.936H155.073ZM142.041 88.856L127.281 87.272H142.725L142.041 88.856ZM143.517 85.364L128.757 83.78H144.201L143.517 85.364ZM144.993 81.908L130.233 80.324H145.641L144.993 81.908ZM146.433 78.452L131.709 76.868H147.117L146.433 78.452ZM147.909 74.996L133.185 73.412H148.557L147.909 74.996ZM149.349 71.504L134.661 69.956H149.997L149.349 71.504ZM182.066 89L178.359 81.872H178.215L176.955 89H170.907L174.219 69.956H179.115L182.859 77.048H183.075L184.299 69.956H190.311L186.963 89H182.066ZM169.719 88.892L154.454 87.272H170.007L169.719 88.892ZM170.943 81.944L155.678 80.324H171.231L170.943 81.944ZM171.555 78.488L156.29 76.868H171.843L171.555 78.488ZM172.167 75.032L156.902 73.412H172.455L172.167 75.032ZM172.779 71.576L157.514 69.956H173.031L172.779 71.576ZM170.331 85.4L155.066 83.78H170.619L170.331 85.4ZM199.654 88.892L184.39 87.272H199.942L199.654 88.892ZM200.266 85.4L185.002 83.78H200.554L200.266 85.4ZM198.826 75.032L183.562 73.412H198.502L198.826 75.032ZM198.106 71.576L182.842 69.956H197.782L198.106 71.576ZM199.546 78.488L184.282 76.868H199.222L199.546 78.488ZM200.266 81.944L185.002 80.324H199.906L200.266 81.944ZM205.054 69.956L205.846 76.868H206.062L209.05 69.956H215.35L207.718 83.564L206.818 89H200.734L201.67 83.564L198.862 69.956H205.054Z" fill="#E67A17"/>
</svg>
