<svg width="224" height="99" viewBox="0 0 224 99" fill="none" xmlns="http://www.w3.org/2000/svg">
<rect width="224" height="99" fill="#0F1C23"/>
<path d="M26.8379 17.793V43H23.2344V17.793H26.8379ZM49.5312 43H46.0684V27.7422H36.418V43H32.9727V24.2793H36.418V27.584C36.4414 27.127 36.5469 26.6992 36.7344 26.3008C36.9219 25.8906 37.168 25.5391 37.4727 25.2461C37.7891 24.9414 38.1523 24.707 38.5625 24.543C38.9727 24.3672 39.4121 24.2793 39.8809 24.2793H46.0684C46.5488 24.2793 47 24.373 47.4219 24.5605C47.8438 24.7363 48.207 24.9824 48.5117 25.2988C48.8281 25.6035 49.0742 25.9668 49.25 26.3887C49.4375 26.8105 49.5312 27.2617 49.5312 27.7422V43ZM55.2969 27.7422C55.2969 27.2617 55.3848 26.8105 55.5605 26.3887C55.748 25.9668 55.9941 25.6035 56.2988 25.2988C56.6152 24.9824 56.9844 24.7363 57.4062 24.5605C57.8281 24.373 58.2734 24.2793 58.7422 24.2793H68.3926V17.0723H71.8555V43H68.3926V39.8359C68.3574 40.2695 68.2402 40.6797 68.041 41.0664C67.8418 41.4531 67.584 41.793 67.2676 42.0859C66.9629 42.3672 66.6113 42.5898 66.2129 42.7539C65.8145 42.918 65.3926 43 64.9473 43H58.7422C58.2734 43 57.8281 42.9121 57.4062 42.7363C56.9844 42.5488 56.6152 42.3027 56.2988 41.998C55.9941 41.6816 55.748 41.3125 55.5605 40.8906C55.3848 40.4688 55.2969 40.0176 55.2969 39.5371V27.7422ZM58.7422 39.5371H68.3926V27.7422H58.7422V39.5371ZM77.6211 24.2793H81.0664V39.5371H90.7168V24.2793H94.1797V43H90.7168V39.8359C90.6816 40.2695 90.5645 40.6797 90.3652 41.0664C90.166 41.4531 89.9082 41.793 89.5918 42.0859C89.2871 42.3672 88.9355 42.5898 88.5371 42.7539C88.1387 42.918 87.7168 43 87.2715 43H81.0664C80.5977 43 80.1523 42.9121 79.7305 42.7363C79.3086 42.5488 78.9395 42.3027 78.623 41.998C78.3184 41.6816 78.0723 41.3125 77.8848 40.8906C77.709 40.4688 77.6211 40.0176 77.6211 39.5371V24.2793ZM111.248 39.5371V35.1953H103.039C102.559 35.1953 102.107 35.1074 101.686 34.9316C101.264 34.7441 100.895 34.498 100.578 34.1934C100.273 33.877 100.027 33.5078 99.8398 33.0859C99.6641 32.6641 99.5762 32.2129 99.5762 31.7324V27.7422C99.5762 27.2617 99.6641 26.8105 99.8398 26.3887C100.027 25.9668 100.273 25.6035 100.578 25.2988C100.895 24.9824 101.264 24.7363 101.686 24.5605C102.107 24.373 102.559 24.2793 103.039 24.2793H113.99V27.7422H103.039V31.7324H111.248C111.729 31.7324 112.174 31.8262 112.584 32.0137C113.006 32.1895 113.375 32.4355 113.691 32.752C114.008 33.0566 114.254 33.4199 114.43 33.8418C114.617 34.2637 114.711 34.7148 114.711 35.1953V39.5371C114.711 40.0176 114.617 40.4688 114.43 40.8906C114.254 41.3125 114.008 41.6816 113.691 41.998C113.375 42.3027 113.006 42.5488 112.584 42.7363C112.174 42.9121 111.729 43 111.248 43H99.5762V39.5371H111.248ZM119.035 24.2793H123.605V18.5137H127.068V24.2793H133.221V27.7422H127.068V39.5371H133.221V43H127.068C126.6 43 126.154 42.9121 125.732 42.7363C125.311 42.5488 124.941 42.3027 124.625 41.998C124.309 41.6816 124.057 41.3125 123.869 40.8906C123.693 40.4688 123.605 40.0176 123.605 39.5371V27.7422H119.035V24.2793ZM142.449 27.7422V43H139.004V24.2793H142.449V27.584C142.473 27.127 142.578 26.6992 142.766 26.3008C142.953 25.8906 143.199 25.5391 143.504 25.2461C143.82 24.9414 144.184 24.707 144.594 24.543C145.004 24.3672 145.443 24.2793 145.912 24.2793H149.586C150.066 24.2793 150.512 24.373 150.922 24.5605C151.344 24.7363 151.713 24.9824 152.029 25.2988C152.346 25.6035 152.592 25.9668 152.768 26.3887C152.955 26.8105 153.049 27.2617 153.049 27.7422V30.9062H149.586V27.7422H142.449ZM160.994 24.2793V43H157.531V24.2793H160.994ZM157.355 17.0723H161.17V20.6758H157.355V17.0723ZM166.953 34.8262C166.953 34.3457 167.041 33.9004 167.217 33.4902C167.404 33.0684 167.65 32.6992 167.955 32.3828C168.271 32.0664 168.641 31.8203 169.062 31.6445C169.484 31.457 169.93 31.3633 170.398 31.3633H179.328V27.7422H168.025V24.2793H179.328C179.809 24.2793 180.26 24.373 180.682 24.5605C181.104 24.7363 181.467 24.9824 181.771 25.2988C182.088 25.6035 182.334 25.9668 182.51 26.3887C182.697 26.8105 182.791 27.2617 182.791 27.7422V43H179.328V39.8359C179.293 40.2695 179.176 40.6797 178.977 41.0664C178.777 41.4531 178.52 41.793 178.203 42.0859C177.898 42.3672 177.547 42.5898 177.148 42.7539C176.75 42.918 176.328 43 175.883 43H170.398C169.93 43 169.484 42.9121 169.062 42.7363C168.641 42.5488 168.271 42.3027 167.955 41.998C167.65 41.6816 167.404 41.3125 167.217 40.8906C167.041 40.4688 166.953 40.0176 166.953 39.5371V34.8262ZM170.398 39.5371H179.328V34.8262H170.398V39.5371ZM192.02 17.0723V43H188.574V17.0723H192.02ZM23.2344 56.3965C23.2344 55.9043 23.3281 55.4414 23.5156 55.0078C23.7031 54.5625 23.9609 54.1816 24.2891 53.8652C24.6172 53.5371 24.998 53.2793 25.4316 53.0918C25.877 52.8926 26.3457 52.793 26.8379 52.793H40.5137C41.0059 52.793 41.4688 52.8926 41.9023 53.0918C42.3477 53.2793 42.7344 53.5371 43.0625 53.8652C43.3906 54.1816 43.6484 54.5625 43.8359 55.0078C44.0234 55.4414 44.1172 55.9043 44.1172 56.3965V59.6484H40.5137V56.3965H26.8379V74.3965H40.5137V71.1621H44.1172V74.3965C44.1172 74.8887 44.0234 75.3574 43.8359 75.8027C43.6484 76.2363 43.3906 76.6172 43.0625 76.9453C42.7344 77.2734 42.3477 77.5312 41.9023 77.7188C41.4688 77.9062 41.0059 78 40.5137 78H26.8379C26.3457 78 25.877 77.9062 25.4316 77.7188C24.998 77.5312 24.6172 77.2734 24.2891 76.9453C23.9609 76.6172 23.7031 76.2363 23.5156 75.8027C23.3281 75.3574 23.2344 74.8887 23.2344 74.3965V56.3965ZM65.7207 74.5371C65.7207 75.0176 65.627 75.4688 65.4395 75.8906C65.2637 76.3125 65.0176 76.6816 64.7012 76.998C64.3965 77.3027 64.0332 77.5488 63.6113 77.7363C63.2012 77.9121 62.7559 78 62.2754 78H52.9766C52.5078 78 52.0625 77.9121 51.6406 77.7363C51.2188 77.5488 50.8496 77.3027 50.5332 76.998C50.2285 76.6816 49.9824 76.3125 49.7949 75.8906C49.6191 75.4688 49.5312 75.0176 49.5312 74.5371V62.7422C49.5312 62.2617 49.6191 61.8105 49.7949 61.3887C49.9824 60.9668 50.2285 60.6035 50.5332 60.2988C50.8496 59.9824 51.2188 59.7363 51.6406 59.5605C52.0625 59.373 52.5078 59.2793 52.9766 59.2793H62.2754C62.7559 59.2793 63.2012 59.373 63.6113 59.5605C64.0332 59.7363 64.3965 59.9824 64.7012 60.2988C65.0176 60.6035 65.2637 60.9668 65.4395 61.3887C65.627 61.8105 65.7207 62.2617 65.7207 62.7422V74.5371ZM52.9766 62.7422V74.5371H62.2754V62.7422H52.9766ZM86.3398 62.7422V78H82.877V62.7422H74.9492V78H71.5039V59.2793H74.9492V62.584C74.9727 62.127 75.0781 61.6992 75.2656 61.3008C75.4531 60.8906 75.6992 60.5391 76.0039 60.2461C76.3203 59.9414 76.6836 59.707 77.0938 59.543C77.5039 59.3672 77.9434 59.2793 78.4121 59.2793H82.877C83.334 59.2793 83.7676 59.3672 84.1777 59.543C84.5879 59.707 84.9512 59.9414 85.2676 60.2461C85.584 60.5391 85.8359 60.8906 86.0234 61.3008C86.2227 61.6992 86.3281 62.127 86.3398 62.584C86.3633 62.127 86.4629 61.6992 86.6387 61.3008C86.8262 60.8906 87.0723 60.5391 87.377 60.2461C87.6934 59.9414 88.0566 59.707 88.4668 59.543C88.877 59.3672 89.3164 59.2793 89.7852 59.2793H94.25C94.7305 59.2793 95.1816 59.373 95.6035 59.5605C96.0254 59.7363 96.3887 59.9824 96.6934 60.2988C97.0098 60.6035 97.2559 60.9668 97.4316 61.3887C97.6191 61.8105 97.7129 62.2617 97.7129 62.7422V78H94.25V62.7422H86.3398ZM120.055 74.5371C120.055 75.0176 119.961 75.4688 119.773 75.8906C119.598 76.3125 119.352 76.6816 119.035 76.998C118.73 77.3027 118.367 77.5488 117.945 77.7363C117.523 77.9121 117.072 78 116.592 78H106.941V85.5586H103.496V59.2793H106.941V62.4434C106.977 61.998 107.094 61.5879 107.293 61.2129C107.492 60.8262 107.744 60.4922 108.049 60.2109C108.354 59.918 108.705 59.6895 109.104 59.5254C109.514 59.3613 109.947 59.2793 110.404 59.2793H116.592C117.072 59.2793 117.523 59.373 117.945 59.5605C118.367 59.7363 118.73 59.9824 119.035 60.2988C119.352 60.6035 119.598 60.9668 119.773 61.3887C119.961 61.8105 120.055 62.2617 120.055 62.7422V74.5371ZM116.592 74.5371V62.7422H106.941V74.5371H116.592ZM125.82 69.8262C125.82 69.3457 125.908 68.9004 126.084 68.4902C126.271 68.0684 126.518 67.6992 126.822 67.3828C127.139 67.0664 127.508 66.8203 127.93 66.6445C128.352 66.457 128.797 66.3633 129.266 66.3633H138.195V62.7422H126.893V59.2793H138.195C138.676 59.2793 139.127 59.373 139.549 59.5605C139.971 59.7363 140.334 59.9824 140.639 60.2988C140.955 60.6035 141.201 60.9668 141.377 61.3887C141.564 61.8105 141.658 62.2617 141.658 62.7422V78H138.195V74.8359C138.16 75.2695 138.043 75.6797 137.844 76.0664C137.645 76.4531 137.387 76.793 137.07 77.0859C136.766 77.3672 136.414 77.5898 136.016 77.7539C135.617 77.918 135.195 78 134.75 78H129.266C128.797 78 128.352 77.9121 127.93 77.7363C127.508 77.5488 127.139 77.3027 126.822 76.998C126.518 76.6816 126.271 76.3125 126.084 75.8906C125.908 75.4688 125.82 75.0176 125.82 74.5371V69.8262ZM129.266 74.5371H138.195V69.8262H129.266V74.5371ZM164 78H160.537V62.7422H150.887V78H147.441V59.2793H150.887V62.584C150.91 62.127 151.016 61.6992 151.203 61.3008C151.391 60.8906 151.637 60.5391 151.941 60.2461C152.258 59.9414 152.621 59.707 153.031 59.543C153.441 59.3672 153.881 59.2793 154.35 59.2793H160.537C161.018 59.2793 161.469 59.373 161.891 59.5605C162.312 59.7363 162.676 59.9824 162.98 60.2988C163.297 60.6035 163.543 60.9668 163.719 61.3887C163.906 61.8105 164 62.2617 164 62.7422V78ZM171.031 85.5586L174.951 76.3125L167.604 59.2793H171.242L176.709 72.1641L182.176 59.2793H185.814L174.477 85.5586H171.031Z" fill="#E67A17"/>
</svg>
